<?xml version="1.0" encoding="utf-8"?>
<!-- Generator: Adobe Illustrator 24.2.0, SVG Export Plug-In . SVG Version: 6.00 Build 0)  -->
<svg version="1.1" id="Layer_1" xmlns="http://www.w3.org/2000/svg" xmlns:xlink="http://www.w3.org/1999/xlink" x="0px" y="0px"
	 viewBox="0 0 88.5 26.8" style="enable-background:new 0 0 88.5 26.8;" xml:space="preserve">
<g>
	<g>
		<path d="M26.7,15.1L26.7,15.1l-3.5,0l0-4.2l0-10.9H0.1v10.9h5.1V15H0.1v11.8h26.6L26.7,15.1L26.7,15.1z M23.4,23.3H3.3v-5h5.1V7.6
			H3.3V3.4h16.5v14.9h0.6v0h2.9C23.4,18.3,23.4,23.3,23.4,23.3z"/>
		<path d="M57.3,26.8H30.6V0h26.7V26.8z M53.9,23.3V3.4h-8.2V19h-3.4V3.4H34v19.9C34,23.3,53.9,23.3,53.9,23.3z"/>
		<path d="M88.5,19H76.8v7.8H61.8V0h26.7V19z M85.1,15.5V3.4H65.2v19.9h8.2v-7.8H85.1z M76.8,11.2h-3.4V7.8h3.4V11.2z"/>
	</g>
</g>
</svg>
