<?xml version="1.0" encoding="utf-8"?>
<!-- Generator: Adobe Illustrator 24.2.0, SVG Export Plug-In . SVG Version: 6.00 Build 0)  -->
<svg version="1.1"
	 id="svg28566" xmlns:cc="http://creativecommons.org/ns#" xmlns:dc="http://purl.org/dc/elements/1.1/" xmlns:inkscape="http://www.inkscape.org/namespaces/inkscape" xmlns:rdf="http://www.w3.org/1999/02/22-rdf-syntax-ns#" xmlns:sodipodi="http://sodipodi.sourceforge.net/DTD/sodipodi-0.dtd" xmlns:svg="http://www.w3.org/2000/svg"
	 xmlns="http://www.w3.org/2000/svg" xmlns:xlink="http://www.w3.org/1999/xlink" x="0px" y="0px" viewBox="0 0 306 58.7"
	 style="enable-background:new 0 0 306 58.7;" xml:space="preserve">
<style type="text/css">
	.st0{fill:#242424;}
	.st1{fill:#FFFFFF;}
</style>
<sodipodi:namedview  bordercolor="#666666" borderopacity="1" fit-margin-bottom="0" fit-margin-left="0" fit-margin-right="0" fit-margin-top="0" gridtolerance="10" guidetolerance="10" id="namedview28568" inkscape:current-layer="Layer_2" inkscape:cx="123.33" inkscape:cy="35.939998" inkscape:pageopacity="0" inkscape:pageshadow="2" inkscape:window-height="1016" inkscape:window-maximized="1" inkscape:window-width="1920" inkscape:window-x="0" inkscape:window-y="27" inkscape:zoom="3.1325" objecttolerance="10" pagecolor="#ffffff" showgrid="false">
	</sodipodi:namedview>
<g id="Layer_2_1_" transform="translate(-76.67,-71.05)">
	<path id="path28546" class="st0" d="M206.2,90.1l-3.5,24.7c0,0-0.1,0-0.1,0l-3.1-24.7l0,0h-8.8l-3.1,24.7c0,0-0.1,0-0.1,0L184,90.1
		h-5.4l0,0l4.4,28.5h8.8l3.2-24.6c0,0,0.1,0,0.1,0l3.2,24.6h8.8l4.5-28.5L206.2,90.1C206.3,90.1,206.2,90,206.2,90.1L206.2,90.1z"/>
	<path id="path28548" class="st0" d="M305,91.4c-1.3-1.5-3.2-2.2-5.2-2.1c-2.7-0.1-5.1,1.4-6.3,3.8l0,0c-0.4-1-1-1.9-1.9-2.6
		c-1-0.8-2.3-1.2-3.6-1.1c-1.3,0-2.5,0.3-3.5,1c-0.9,0.6-1.6,1.5-2,2.4v-2.6l0,0h-5.2l0,0v28.5h5.2V99.1c-0.1-1.2,0.3-2.5,1-3.5
		c0.6-0.8,1.6-1.3,2.7-1.2c0.9,0,1.7,0.3,2.3,1c0.6,0.8,0.9,1.7,0.9,2.7v20.5l0,0h5.2V99.4c-0.1-1.4,0.2-2.7,1-3.9
		c0.6-0.8,1.6-1.2,2.6-1.2c0.9-0.1,1.8,0.3,2.4,1c0.6,0.9,0.9,1.9,0.8,2.9v20.3l0,0h5.3V96.9C306.8,94.9,306.2,92.9,305,91.4z"/>
	<path id="path28550" class="st0" d="M243.5,115.5l-3.3,3.7h-0.1l-5.9-5.1l0,0l-7,4.1c-1.1,0.7-2.4,1-3.8,1c-2,0-3.9-0.8-5.3-2.1
		c-1.5-1.4-2.3-3.4-2.3-5.4c0-2.7,1.5-5.2,3.8-6.6l14.1-8.1l0,0v-1.8h-16.5l0,0v-5l0,0h21.6v21.4l0,0L243.5,115.5L243.5,115.5z
		 M224.7,113.9l9.1-5.3l0,0v-5.7 M233.7,102.9l-11.6,6.7c-0.8,0.4-1.3,1.3-1.3,2.2c0,1.4,1.1,2.5,2.5,2.5c0.5,0,0.9-0.1,1.3-0.4
		L233.7,102.9z"/>
	<path id="path28552" class="st0" d="M268.8,92c-1.7-1.8-4.2-2.8-6.7-2.8c-2.9-0.1-5.7,1.3-7.5,3.6l-3.3-3.1 M251.2,89.8l-3.3,3.7
		l4.7,4.3v15.7h-4.7l0,0v4.9h17l0,0v-4.9h-7.2V98.9c0-2.3,1.7-4.4,4-4.7c2.4-0.2,4.6,1.6,4.9,4c0,0.1,0,0.3,0,0.4v1.6l0,0h4.9l0,0
		v-1.6c0-2.5-1-4.9-2.8-6.7L251.2,89.8z"/>
	<path id="path28554" class="st0" d="M173.3,106.7c-0.3-0.8-0.9-1.5-1.5-2c-0.7-0.6-1.5-1.1-2.4-1.4c-0.9-0.4-1.8-0.8-2.7-1
		c-0.9-0.2-2-0.5-3.1-0.7c-1.7-0.3-3.4-0.8-4.9-1.6c-0.9-0.5-1.5-1.4-1.5-2.5c-0.1-1,0.5-2,1.4-2.6c1.3-0.8,2.9-1.1,4.4-0.8
		c1.4,0.4,2.8,1.1,3.9,2.1c0.2,0.2,2.5,2.3,2.5,2.3l3.3-3.7c0,0-1.6-1.6-2.3-2.3c-1.8-1.6-3.9-2.8-6.3-3.2c-2.5-0.4-5,0-7.2,1.1
		c-0.6,0.3-1.2,0.7-1.7,1.1c-1.9,1.5-2.9,3.7-2.9,6.1c0,2.6,0.8,4.4,2.5,5.7c2,1.4,4.3,2.3,6.7,2.7c1.9,0.3,3.8,0.9,5.5,1.7
		c1,0.3,1.6,1.2,1.6,2.2c0,1.2-0.6,2.4-1.6,3c-2.6,1.4-5.7,1.4-8.2,0c-1-0.7-2-1.4-2.9-2.3c-0.7-0.6-1.4-1.2-2.1-1.9l0,0l-3.2,3.8
		c0,0,1.6,1.5,1.7,1.6c2,2.1,4.6,3.5,7.4,4.2c1,0.2,2.1,0.3,3.2,0.3c2.8,0.1,5.6-0.8,7.9-2.4c2.1-1.6,3.4-4.2,3.3-6.8
		C174,108.5,173.7,107.6,173.3,106.7L173.3,106.7z"/>
	<polygon id="polygon28556" class="st0" points="76.7,122.2 90.1,129.7 103.6,122.2 103.6,107.1 90.1,99.5 76.7,107.1 	"/>
	<polygon id="polygon28558" class="st0" points="121.2,71.1 114.1,75.1 114.1,75.1 114.1,83.1 121.2,87.1 121.3,87.1 128.4,83.1 
		128.4,75.1 	"/>
	<polygon id="polygon28560" class="st0" points="134.4,107.1 121,99.5 107.5,107.1 107.5,122.2 121,129.7 134.4,122.2 	"/>
	<polygon id="polygon28562" class="st0" points="105.4,73.2 92,80.7 92,95.8 105.5,103.4 118.9,95.8 118.9,89.8 112.4,86.1 
		110.6,85.1 110.6,83.1 110.6,76.2 	"/>
</g>
<rect x="247" y="7" class="st1" width="50" height="43"/>
</svg>
